<?xml version="1.0"?><svg width="640" height="480" xmlns="http://www.w3.org/2000/svg">
 <title>Anonymous man</title>
 <metadata id="metadata7">image/svg+xmlMan silhouetteMan silhouette people person head shoulders face</metadata>
 <g>
  <g id="layer1">
   <path d="m81.428574,472.016022c0,-8.431 13.656487,-80.890289 15.97113,-84.74057c0.824677,-1.371765 2.873123,-10.257446 4.552063,-19.745911c3.91655,-22.133759 11.137413,-45.915558 15.387741,-50.679443c1.827179,-2.047913 18.223526,-6.915924 36.436371,-10.81781c55.950165,-11.986633 80.609528,-21.219635 92.784088,-34.740204c5.802917,-6.444489 14.579346,-13.161072 19.503204,-14.925659c7.822937,-2.803604 8.952393,-4.587357 8.952393,-14.138535c0,-6.011597 -1.787354,-13.566757 -3.971893,-16.789291c-2.18454,-3.222534 -4.932953,-11.874268 -6.107635,-19.226059c-1.174744,-7.351761 -4.588196,-15.758148 -7.585571,-18.680786c-2.99736,-2.922684 -5.449768,-6.65271 -5.449768,-8.28894c0,-1.636246 -2.925461,-7.042847 -6.501053,-12.014618c-5.545395,-7.710861 -6.554276,-13.042145 -6.863205,-36.267349c-0.596817,-44.870872 3.144638,-65.403641 15.36731,-84.334476c17.258362,-26.730219 50.586914,-45.243956 81.602112,-45.329331c12.119141,-0.033356 17.211151,1.411196 22.300201,6.32621c3.842957,3.711549 12.874207,7.389925 21.642548,8.814888c17.445221,2.835094 33.134857,14.224442 40.752747,29.583118c3.829834,7.721485 5.052979,17.50779 5.056366,40.456726c0.002533,16.971535 1.273956,31.078033 2.893829,32.107277c7.856903,4.992065 0.527344,39.483376 -11.798431,55.521141c-4.634888,6.030685 -8.455627,13.382446 -8.490509,16.33728c-0.034912,2.954834 -2.635315,11.19928 -5.778717,18.321045c-10.439667,23.65239 -6.84726,47.061569 8.026276,52.301468c2.771606,0.97641 9.590027,7.790955 15.152039,15.143433c5.562012,7.352448 13.363312,14.123505 17.336182,15.046753c3.972839,0.923279 21.78949,7.56311 39.592499,14.75531c17.803009,7.192169 33.236847,13.076721 34.297455,13.076721c1.060608,0 7.56073,3.675812 14.444763,8.16864c12.302124,8.028809 18.571533,18.745972 18.571533,31.747101c0,3.495148 2.68866,11.649963 5.974792,18.121857c5.288269,10.4151 8.887756,30.388336 16.172424,89.74057l1.5495,12.624268l-245.886414,0l-245.886368,0l0,-7.474823z" id="path2396" fill="#000000"/>
  </g>
 </g>
</svg>
