<?xml version="1.0" encoding="utf-8"?>
<!-- Generator: Adobe Illustrator 19.0.0, SVG Export Plug-In . SVG Version: 6.00 Build 0)  -->
<svg version="1.1" id="Layer_1" xmlns="http://www.w3.org/2000/svg" xmlns:xlink="http://www.w3.org/1999/xlink" x="0px" y="0px"
	 viewBox="0 0 96 96" style="enable-background:new 0 0 96 96;" xml:space="preserve">
<style type="text/css">
	.st0{fill:#333333;}
</style>
<g id="XMLID_2_">
	<path id="XMLID_6_" class="st0" d="M68.8,43.4V48c0,5.3-1.8,9.9-5.3,13.9c-3.5,3.9-7.9,6.2-13.1,6.8v4.8h9.2c0.6,0,1.2,0.2,1.6,0.7
		c0.5,0.5,0.7,1,0.7,1.6s-0.2,1.2-0.7,1.6c-0.5,0.5-1,0.7-1.6,0.7H36.5c-0.6,0-1.2-0.2-1.6-0.7c-0.5-0.5-0.7-1-0.7-1.6
		s0.2-1.2,0.7-1.6c0.5-0.5,1-0.7,1.6-0.7h9.2v-4.8c-5.2-0.6-9.6-2.8-13.1-6.8s-5.3-8.6-5.3-13.9v-4.6c0-0.6,0.2-1.2,0.7-1.6
		c0.5-0.5,1-0.7,1.6-0.7s1.2,0.2,1.6,0.7c0.5,0.5,0.7,1,0.7,1.6V48c0,4.4,1.6,8.3,4.7,11.4s7,4.7,11.4,4.7s8.3-1.6,11.4-4.7
		s4.7-7,4.7-11.4v-4.6c0-0.6,0.2-1.2,0.7-1.6c0.5-0.5,1-0.7,1.6-0.7s1.2,0.2,1.6,0.7C68.5,42.2,68.8,42.8,68.8,43.4z M59.5,29.5V48
		c0,3.2-1.1,5.9-3.4,8.1c-2.3,2.3-5,3.4-8.1,3.4s-5.9-1.1-8.1-3.4c-2.3-2.3-3.4-5-3.4-8.1V29.5c0-3.2,1.1-5.9,3.4-8.1
		c2.3-2.3,5-3.4,8.1-3.4s5.9,1.1,8.1,3.4C58.4,23.6,59.5,26.4,59.5,29.5z"/>
</g>
</svg>
